<?xml version="1.0" encoding="UTF-8" standalone="no"?>
<!DOCTYPE svg PUBLIC "-//W3C//DTD SVG 1.1//EN"
 "http://www.w3.org/Graphics/SVG/1.1/DTD/svg11.dtd">
<!-- Generated by graphviz version 2.40.1 (20161225.0304)
 -->
<!-- Title: G Pages: 1 -->
<svg width="409pt" height="260pt"
 viewBox="0.00 0.00 409.09 260.00" xmlns="http://www.w3.org/2000/svg" xmlns:xlink="http://www.w3.org/1999/xlink">
<g id="graph0" class="graph" transform="scale(1 1) rotate(0) translate(4 256)">
<title>G</title>
<polygon fill="#ffffff" stroke="transparent" points="-4,4 -4,-256 405.0877,-256 405.0877,4 -4,4"/>
<!-- I1 -->
<g id="node1" class="node">
<title>I1</title>
<ellipse fill="none" stroke="#000000" cx="220.3454" cy="-234" rx="51.1914" ry="18"/>
<text text-anchor="middle" x="220.3454" y="-230.3" font-family="Times,serif" font-size="14.00" fill="#000000">gen_next(i)</text>
</g>
<!-- I2 -->
<g id="node2" class="node">
<title>I2</title>
<ellipse fill="none" stroke="#000000" cx="164.3454" cy="-162" rx="51.1914" ry="18"/>
<text text-anchor="middle" x="164.3454" y="-158.3" font-family="Times,serif" font-size="14.00" fill="#000000">gen_next(i)</text>
</g>
<!-- I1&#45;&gt;I2 -->
<g id="edge3" class="edge">
<title>I1&#45;&gt;I2</title>
<path fill="none" stroke="#000000" d="M206.7894,-216.5708C200.0297,-207.8797 191.7233,-197.2001 184.2564,-187.5998"/>
<polygon fill="#000000" stroke="#000000" points="186.8729,-185.263 177.9707,-179.5182 181.3474,-189.5606 186.8729,-185.263"/>
</g>
<!-- A1 -->
<g id="node4" class="node">
<title>A1</title>
<ellipse fill="none" stroke="#000000" cx="295.3454" cy="-162" rx="43.5923" ry="18"/>
<text text-anchor="middle" x="295.3454" y="-158.3" font-family="Times,serif" font-size="14.00" fill="#000000">test arr[i]</text>
</g>
<!-- I1&#45;&gt;A1 -->
<g id="edge1" class="edge">
<title>I1&#45;&gt;A1</title>
<path fill="none" stroke="#ff0000" d="M238.1194,-216.937C247.8096,-207.6344 259.9566,-195.9733 270.5636,-185.7906"/>
<polygon fill="#ff0000" stroke="#ff0000" points="273.1678,-188.1424 277.9578,-178.6921 268.32,-183.0926 273.1678,-188.1424"/>
</g>
<!-- I3 -->
<g id="node3" class="node">
<title>I3</title>
<ellipse fill="none" stroke="#000000" cx="51.3454" cy="-90" rx="51.1914" ry="18"/>
<text text-anchor="middle" x="51.3454" y="-86.3" font-family="Times,serif" font-size="14.00" fill="#000000">gen_next(i)</text>
</g>
<!-- I2&#45;&gt;I3 -->
<g id="edge6" class="edge">
<title>I2&#45;&gt;I3</title>
<path fill="none" stroke="#000000" d="M139.5471,-146.1993C123.6138,-136.0471 102.7073,-122.7262 85.2478,-111.6015"/>
<polygon fill="#000000" stroke="#000000" points="86.7908,-108.4345 76.4764,-106.0127 83.0292,-114.338 86.7908,-108.4345"/>
</g>
<!-- A2 -->
<g id="node5" class="node">
<title>A2</title>
<ellipse fill="none" stroke="#000000" cx="164.3454" cy="-90" rx="43.5923" ry="18"/>
<text text-anchor="middle" x="164.3454" y="-86.3" font-family="Times,serif" font-size="14.00" fill="#000000">test arr[i]</text>
</g>
<!-- I2&#45;&gt;A2 -->
<g id="edge4" class="edge">
<title>I2&#45;&gt;A2</title>
<path fill="none" stroke="#0000ff" d="M164.3454,-143.8314C164.3454,-136.131 164.3454,-126.9743 164.3454,-118.4166"/>
<polygon fill="#0000ff" stroke="#0000ff" points="167.8455,-118.4132 164.3454,-108.4133 160.8455,-118.4133 167.8455,-118.4132"/>
</g>
<!-- J1 -->
<g id="node6" class="node">
<title>J1</title>
<ellipse fill="none" stroke="#000000" cx="313.3454" cy="-90" rx="87.9851" ry="18"/>
<text text-anchor="middle" x="313.3454" y="-86.3" font-family="Times,serif" font-size="14.00" fill="#000000">jne set_incr (untaken)</text>
</g>
<!-- A1&#45;&gt;J1 -->
<g id="edge2" class="edge">
<title>A1&#45;&gt;J1</title>
<path fill="none" stroke="#ff0000" d="M299.8876,-143.8314C301.8339,-136.0463 304.1522,-126.7729 306.3118,-118.1347"/>
<polygon fill="#ff0000" stroke="#ff0000" points="309.7122,-118.9636 308.7421,-108.4133 302.9212,-117.2658 309.7122,-118.9636"/>
</g>
<!-- J2 -->
<g id="node7" class="node">
<title>J2</title>
<ellipse fill="none" stroke="#000000" cx="164.3454" cy="-18" rx="87.9851" ry="18"/>
<text text-anchor="middle" x="164.3454" y="-14.3" font-family="Times,serif" font-size="14.00" fill="#000000">jne set_incr (untaken)</text>
</g>
<!-- A2&#45;&gt;J2 -->
<g id="edge5" class="edge">
<title>A2&#45;&gt;J2</title>
<path fill="none" stroke="#0000ff" d="M164.3454,-71.8314C164.3454,-64.131 164.3454,-54.9743 164.3454,-46.4166"/>
<polygon fill="#0000ff" stroke="#0000ff" points="167.8455,-46.4132 164.3454,-36.4133 160.8455,-46.4133 167.8455,-46.4132"/>
</g>
</g>
</svg>
