<?xml version="1.0" encoding="UTF-8" standalone="no"?>
<!DOCTYPE svg PUBLIC "-//W3C//DTD SVG 1.1//EN"
 "http://www.w3.org/Graphics/SVG/1.1/DTD/svg11.dtd">
<!-- Generated by graphviz version 2.40.1 (20161225.0304)
 -->
<!-- Title: G Pages: 1 -->
<svg width="167pt" height="476pt"
 viewBox="0.00 0.00 166.59 476.00" xmlns="http://www.w3.org/2000/svg" xmlns:xlink="http://www.w3.org/1999/xlink">
<g id="graph0" class="graph" transform="scale(1 1) rotate(0) translate(4 472)">
<title>G</title>
<polygon fill="#ffffff" stroke="transparent" points="-4,4 -4,-472 162.5859,-472 162.5859,4 -4,4"/>
<!-- I1 -->
<g id="node1" class="node">
<title>I1</title>
<ellipse fill="none" stroke="#000000" cx="79.293" cy="-450" rx="51.1914" ry="18"/>
<text text-anchor="middle" x="79.293" y="-446.3" font-family="Times,serif" font-size="14.00" fill="#000000">gen_next(i)</text>
</g>
<!-- A1 -->
<g id="node3" class="node">
<title>A1</title>
<ellipse fill="none" stroke="#000000" cx="79.293" cy="-378" rx="43.5923" ry="18"/>
<text text-anchor="middle" x="79.293" y="-374.3" font-family="Times,serif" font-size="14.00" fill="#000000">test arr[i]</text>
</g>
<!-- I1&#45;&gt;A1 -->
<g id="edge1" class="edge">
<title>I1&#45;&gt;A1</title>
<path fill="none" stroke="#000000" d="M79.293,-431.8314C79.293,-424.131 79.293,-414.9743 79.293,-406.4166"/>
<polygon fill="#000000" stroke="#000000" points="82.7931,-406.4132 79.293,-396.4133 75.7931,-406.4133 82.7931,-406.4132"/>
</g>
<!-- I2 -->
<g id="node2" class="node">
<title>I2</title>
<ellipse fill="none" stroke="#000000" cx="79.293" cy="-162" rx="51.1914" ry="18"/>
<text text-anchor="middle" x="79.293" y="-158.3" font-family="Times,serif" font-size="14.00" fill="#000000">gen_next(i)</text>
</g>
<!-- A2 -->
<g id="node4" class="node">
<title>A2</title>
<ellipse fill="none" stroke="#000000" cx="79.293" cy="-90" rx="43.5923" ry="18"/>
<text text-anchor="middle" x="79.293" y="-86.3" font-family="Times,serif" font-size="14.00" fill="#000000">test arr[i]</text>
</g>
<!-- I2&#45;&gt;A2 -->
<g id="edge2" class="edge">
<title>I2&#45;&gt;A2</title>
<path fill="none" stroke="#000000" d="M79.293,-143.8314C79.293,-136.131 79.293,-126.9743 79.293,-118.4166"/>
<polygon fill="#000000" stroke="#000000" points="82.7931,-118.4132 79.293,-108.4133 75.7931,-118.4133 82.7931,-118.4132"/>
</g>
<!-- C1 -->
<g id="node5" class="node">
<title>C1</title>
<ellipse fill="none" stroke="#000000" cx="79.293" cy="-306" rx="79.0865" ry="18"/>
<text text-anchor="middle" x="79.293" y="-302.3" font-family="Times,serif" font-size="14.00" fill="#000000">cmov arr[i], 0, incr</text>
</g>
<!-- A1&#45;&gt;C1 -->
<g id="edge3" class="edge">
<title>A1&#45;&gt;C1</title>
<path fill="none" stroke="#000000" d="M79.293,-359.8314C79.293,-352.131 79.293,-342.9743 79.293,-334.4166"/>
<polygon fill="#000000" stroke="#000000" points="82.7931,-334.4132 79.293,-324.4133 75.7931,-334.4133 82.7931,-334.4132"/>
</g>
<!-- C2 -->
<g id="node6" class="node">
<title>C2</title>
<ellipse fill="none" stroke="#000000" cx="79.293" cy="-18" rx="79.0865" ry="18"/>
<text text-anchor="middle" x="79.293" y="-14.3" font-family="Times,serif" font-size="14.00" fill="#000000">cmov arr[i], 0, incr</text>
</g>
<!-- A2&#45;&gt;C2 -->
<g id="edge4" class="edge">
<title>A2&#45;&gt;C2</title>
<path fill="none" stroke="#000000" d="M79.293,-71.8314C79.293,-64.131 79.293,-54.9743 79.293,-46.4166"/>
<polygon fill="#000000" stroke="#000000" points="82.7931,-46.4132 79.293,-36.4133 75.7931,-46.4133 82.7931,-46.4132"/>
</g>
<!-- N1 -->
<g id="node7" class="node">
<title>N1</title>
<ellipse fill="none" stroke="#000000" cx="79.293" cy="-234" rx="42.4939" ry="18"/>
<text text-anchor="middle" x="79.293" y="-230.3" font-family="Times,serif" font-size="14.00" fill="#000000">i += incr</text>
</g>
<!-- C1&#45;&gt;N1 -->
<g id="edge5" class="edge">
<title>C1&#45;&gt;N1</title>
<path fill="none" stroke="#000000" d="M79.293,-287.8314C79.293,-280.131 79.293,-270.9743 79.293,-262.4166"/>
<polygon fill="#000000" stroke="#000000" points="82.7931,-262.4132 79.293,-252.4133 75.7931,-262.4133 82.7931,-262.4132"/>
</g>
<!-- N1&#45;&gt;I2 -->
<g id="edge6" class="edge">
<title>N1&#45;&gt;I2</title>
<path fill="none" stroke="#000000" d="M79.293,-215.8314C79.293,-208.131 79.293,-198.9743 79.293,-190.4166"/>
<polygon fill="#000000" stroke="#000000" points="82.7931,-190.4132 79.293,-180.4133 75.7931,-190.4133 82.7931,-190.4132"/>
</g>
</g>
</svg>
