<?xml version="1.0" encoding="UTF-8" standalone="no"?>
<!DOCTYPE svg PUBLIC "-//W3C//DTD SVG 1.1//EN"
 "http://www.w3.org/Graphics/SVG/1.1/DTD/svg11.dtd">
<!-- Generated by graphviz version 2.40.1 (20161225.0304)
 -->
<!-- Title: G Pages: 1 -->
<svg width="388pt" height="350pt"
 viewBox="0.00 0.00 387.94 350.00" xmlns="http://www.w3.org/2000/svg" xmlns:xlink="http://www.w3.org/1999/xlink">
<g id="graph0" class="graph" transform="scale(1 1) rotate(0) translate(4 346)">
<title>G</title>
<polygon fill="#ffffff" stroke="transparent" points="-4,4 -4,-346 383.9383,-346 383.9383,4 -4,4"/>
<!-- i -->
<g id="node1" class="node">
<title>i</title>
<ellipse fill="none" stroke="#000000" cx="168.643" cy="-324" rx="27" ry="18"/>
<text text-anchor="middle" x="168.643" y="-320.3" font-family="Times,serif" font-size="14.00" fill="#000000">i</text>
</g>
<!-- test arr[i] -->
<g id="node2" class="node">
<title>test arr[i]</title>
<ellipse fill="none" stroke="#000000" cx="124.643" cy="-251" rx="43.5923" ry="18"/>
<text text-anchor="middle" x="124.643" y="-247.3" font-family="Times,serif" font-size="14.00" fill="#000000">test arr[i]</text>
</g>
<!-- i&#45;&gt;test arr[i] -->
<g id="edge1" class="edge">
<title>i&#45;&gt;test arr[i]</title>
<path fill="none" stroke="#000000" d="M158.4379,-307.0688C153.1123,-298.2331 146.4773,-287.2251 140.5001,-277.3083"/>
<polygon fill="#000000" stroke="#000000" points="143.412,-275.3593 135.2521,-268.6015 137.4168,-278.9728 143.412,-275.3593"/>
</g>
<!-- i+1 -->
<g id="node4" class="node">
<title>i+1</title>
<ellipse fill="none" stroke="#000000" cx="228.643" cy="-251" rx="27" ry="18"/>
<text text-anchor="middle" x="228.643" y="-247.3" font-family="Times,serif" font-size="14.00" fill="#000000">i+1</text>
</g>
<!-- i&#45;&gt;i+1 -->
<g id="edge3" class="edge">
<title>i&#45;&gt;i+1</title>
<path fill="none" stroke="#000000" d="M181.6621,-308.1601C189.6819,-298.4027 200.1157,-285.7083 209.1129,-274.7617"/>
<polygon fill="#000000" stroke="#000000" points="212.0035,-276.7568 215.6493,-266.809 206.5957,-272.312 212.0035,-276.7568"/>
</g>
<!-- cmov a[i], acc, acc -->
<g id="node3" class="node">
<title>cmov a[i], acc, acc</title>
<ellipse fill="none" stroke="#000000" cx="78.643" cy="-164" rx="78.7863" ry="18"/>
<text text-anchor="middle" x="78.643" y="-160.3" font-family="Times,serif" font-size="14.00" fill="#000000">cmov a[i], acc, acc</text>
</g>
<!-- test arr[i]&#45;&gt;cmov a[i], acc, acc -->
<g id="edge2" class="edge">
<title>test arr[i]&#45;&gt;cmov a[i], acc, acc</title>
<path fill="none" stroke="#000000" d="M115.3342,-233.3943C108.8925,-221.211 100.198,-204.7669 92.8894,-190.9443"/>
<polygon fill="#000000" stroke="#000000" points="95.8642,-189.0825 88.0958,-181.8782 89.676,-192.3545 95.8642,-189.0825"/>
<text text-anchor="middle" x="140.643" y="-203.8" font-family="Times,serif" font-size="14.00" fill="#000000"> &#160;&#160;&#160;&#160;&#160;&#160;&#160;&#160;&#160;&#160;&#160;&#160;&#160;&#160;&#160;&#160;&#160;&#160;</text>
</g>
<!-- cmov a[i+1], acc, acc -->
<g id="node6" class="node">
<title>cmov a[i+1], acc, acc</title>
<ellipse fill="none" stroke="#000000" cx="166.643" cy="-91" rx="88.2844" ry="18"/>
<text text-anchor="middle" x="166.643" y="-87.3" font-family="Times,serif" font-size="14.00" fill="#000000">cmov a[i+1], acc, acc</text>
</g>
<!-- cmov a[i], acc, acc&#45;&gt;cmov a[i+1], acc, acc -->
<g id="edge6" class="edge">
<title>cmov a[i], acc, acc&#45;&gt;cmov a[i+1], acc, acc</title>
<path fill="none" stroke="#000000" d="M99.9454,-146.3287C111.295,-136.9137 125.4193,-125.1969 137.7445,-114.9726"/>
<polygon fill="#000000" stroke="#000000" points="140.0749,-117.587 145.5369,-108.5085 135.6057,-112.1994 140.0749,-117.587"/>
</g>
<!-- test arr[i+1] -->
<g id="node5" class="node">
<title>test arr[i+1]</title>
<ellipse fill="none" stroke="#000000" cx="228.643" cy="-164" rx="53.0913" ry="18"/>
<text text-anchor="middle" x="228.643" y="-160.3" font-family="Times,serif" font-size="14.00" fill="#000000">test arr[i+1]</text>
</g>
<!-- i+1&#45;&gt;test arr[i+1] -->
<g id="edge4" class="edge">
<title>i+1&#45;&gt;test arr[i+1]</title>
<path fill="none" stroke="#000000" d="M228.643,-232.9735C228.643,-221.1918 228.643,-205.5607 228.643,-192.1581"/>
<polygon fill="#000000" stroke="#000000" points="232.1431,-192.0033 228.643,-182.0034 225.1431,-192.0034 232.1431,-192.0033"/>
</g>
<!-- i+2 -->
<g id="node7" class="node">
<title>i+2</title>
<ellipse fill="none" stroke="#000000" cx="326.643" cy="-164" rx="27" ry="18"/>
<text text-anchor="middle" x="326.643" y="-160.3" font-family="Times,serif" font-size="14.00" fill="#000000">i+2</text>
</g>
<!-- i+1&#45;&gt;i+2 -->
<g id="edge7" class="edge">
<title>i+1&#45;&gt;i+2</title>
<path fill="none" stroke="#000000" d="M245.2674,-236.2416C260.9897,-222.2841 284.7611,-201.1809 302.558,-185.3816"/>
<polygon fill="#000000" stroke="#000000" points="305.1095,-187.7968 310.2642,-178.5404 300.4622,-182.5619 305.1095,-187.7968"/>
</g>
<!-- test arr[i+1]&#45;&gt;cmov a[i+1], acc, acc -->
<g id="edge5" class="edge">
<title>test arr[i+1]&#45;&gt;cmov a[i+1], acc, acc</title>
<path fill="none" stroke="#000000" d="M213.6346,-146.3287C206.075,-137.4279 196.7682,-126.47 188.4371,-116.6608"/>
<polygon fill="#000000" stroke="#000000" points="190.8694,-114.1178 181.7282,-108.7615 185.534,-118.6493 190.8694,-114.1178"/>
</g>
<!-- cmov a[i+2], acc, acc -->
<g id="node9" class="node">
<title>cmov a[i+2], acc, acc</title>
<ellipse fill="none" stroke="#000000" cx="245.643" cy="-18" rx="88.2844" ry="18"/>
<text text-anchor="middle" x="245.643" y="-14.3" font-family="Times,serif" font-size="14.00" fill="#000000">cmov a[i+2], acc, acc</text>
</g>
<!-- cmov a[i+1], acc, acc&#45;&gt;cmov a[i+2], acc, acc -->
<g id="edge10" class="edge">
<title>cmov a[i+1], acc, acc&#45;&gt;cmov a[i+2], acc, acc</title>
<path fill="none" stroke="#000000" d="M185.7667,-73.3287C195.6881,-64.1609 207.9712,-52.8107 218.8251,-42.7811"/>
<polygon fill="#000000" stroke="#000000" points="221.4525,-45.1188 226.4216,-35.7615 216.7018,-39.9777 221.4525,-45.1188"/>
</g>
<!-- test arr[i+2] -->
<g id="node8" class="node">
<title>test arr[i+2]</title>
<ellipse fill="none" stroke="#000000" cx="326.643" cy="-91" rx="53.0913" ry="18"/>
<text text-anchor="middle" x="326.643" y="-87.3" font-family="Times,serif" font-size="14.00" fill="#000000">test arr[i+2]</text>
</g>
<!-- i+2&#45;&gt;test arr[i+2] -->
<g id="edge8" class="edge">
<title>i+2&#45;&gt;test arr[i+2]</title>
<path fill="none" stroke="#000000" d="M326.643,-145.9551C326.643,-137.8828 326.643,-128.1764 326.643,-119.1817"/>
<polygon fill="#000000" stroke="#000000" points="330.1431,-119.0903 326.643,-109.0904 323.1431,-119.0904 330.1431,-119.0903"/>
</g>
<!-- test arr[i+2]&#45;&gt;cmov a[i+2], acc, acc -->
<g id="edge9" class="edge">
<title>test arr[i+2]&#45;&gt;cmov a[i+2], acc, acc</title>
<path fill="none" stroke="#000000" d="M307.8564,-74.0688C297.4521,-64.6921 284.3334,-52.8691 272.8278,-42.4999"/>
<polygon fill="#000000" stroke="#000000" points="274.945,-39.6963 265.1734,-35.6015 270.2587,-44.8961 274.945,-39.6963"/>
</g>
</g>
</svg>
