<?xml version="1.0" encoding="UTF-8" standalone="no"?>
<!DOCTYPE svg PUBLIC "-//W3C//DTD SVG 1.1//EN"
 "http://www.w3.org/Graphics/SVG/1.1/DTD/svg11.dtd">
<!-- Generated by graphviz version 2.40.1 (20161225.0304)
 -->
<!-- Title: G Pages: 1 -->
<svg width="382pt" height="332pt"
 viewBox="0.00 0.00 381.69 332.00" xmlns="http://www.w3.org/2000/svg" xmlns:xlink="http://www.w3.org/1999/xlink">
<g id="graph0" class="graph" transform="scale(1 1) rotate(0) translate(4 328)">
<title>G</title>
<polygon fill="#ffffff" stroke="transparent" points="-4,4 -4,-328 377.6886,-328 377.6886,4 -4,4"/>
<!-- j -->
<g id="node1" class="node">
<title>j</title>
<ellipse fill="none" stroke="#000000" cx="148.3933" cy="-306" rx="27" ry="18"/>
<text text-anchor="middle" x="148.3933" y="-302.3" font-family="Times,serif" font-size="14.00" fill="#000000">j</text>
</g>
<!-- test arr[j] -->
<g id="node2" class="node">
<title>test arr[j]</title>
<ellipse fill="none" stroke="#000000" cx="104.3933" cy="-234" rx="43.5923" ry="18"/>
<text text-anchor="middle" x="104.3933" y="-230.3" font-family="Times,serif" font-size="14.00" fill="#000000">test arr[j]</text>
</g>
<!-- j&#45;&gt;test arr[j] -->
<g id="edge1" class="edge">
<title>j&#45;&gt;test arr[j]</title>
<path fill="none" stroke="#ff0000" d="M138.1882,-289.3008C132.9014,-280.6496 126.3244,-269.8873 120.3814,-260.1623"/>
<polygon fill="#ff0000" stroke="#ff0000" points="123.358,-258.3209 115.1569,-251.6132 117.385,-261.9711 123.358,-258.3209"/>
</g>
<!-- j+1 -->
<g id="node5" class="node">
<title>j+1</title>
<ellipse fill="none" stroke="#000000" cx="222.3933" cy="-234" rx="27" ry="18"/>
<text text-anchor="middle" x="222.3933" y="-230.3" font-family="Times,serif" font-size="14.00" fill="#000000">j+1</text>
</g>
<!-- j&#45;&gt;j+1 -->
<g id="edge4" class="edge">
<title>j&#45;&gt;j+1</title>
<path fill="none" stroke="#000000" d="M163.7262,-291.0816C174.1443,-280.945 188.1011,-267.3654 199.788,-255.9944"/>
<polygon fill="#000000" stroke="#000000" points="202.3536,-258.3815 207.0801,-248.8993 197.4721,-253.3644 202.3536,-258.3815"/>
</g>
<!-- cmov a[j], res, res -->
<g id="node3" class="node">
<title>cmov a[j], res, res</title>
<ellipse fill="none" stroke="#000000" cx="75.3933" cy="-162" rx="75.2868" ry="18"/>
<text text-anchor="middle" x="75.3933" y="-158.3" font-family="Times,serif" font-size="14.00" fill="#000000">cmov a[j], res, res</text>
</g>
<!-- test arr[j]&#45;&gt;cmov a[j], res, res -->
<g id="edge2" class="edge">
<title>test arr[j]&#45;&gt;cmov a[j], res, res</title>
<path fill="none" stroke="#ff0000" d="M97.2248,-216.2022C93.9729,-208.1287 90.0535,-198.3976 86.4383,-189.422"/>
<polygon fill="#ff0000" stroke="#ff0000" points="89.6635,-188.0613 82.6808,-180.0931 83.1704,-190.6766 89.6635,-188.0613"/>
</g>
<!-- cmov a[j+1], res, res -->
<g id="node4" class="node">
<title>cmov a[j+1], res, res</title>
<ellipse fill="none" stroke="#000000" cx="164.3933" cy="-90" rx="85.2851" ry="18"/>
<text text-anchor="middle" x="164.3933" y="-86.3" font-family="Times,serif" font-size="14.00" fill="#000000">cmov a[j+1], res, res</text>
</g>
<!-- cmov a[j], res, res&#45;&gt;cmov a[j+1], res, res -->
<g id="edge3" class="edge">
<title>cmov a[j], res, res&#45;&gt;cmov a[j+1], res, res</title>
<path fill="none" stroke="#ff0000" d="M96.9377,-144.5708C108.332,-135.353 122.4913,-123.8983 134.8911,-113.8669"/>
<polygon fill="#ff0000" stroke="#ff0000" points="137.1656,-116.5288 142.7388,-107.5182 132.763,-111.0867 137.1656,-116.5288"/>
</g>
<!-- cmov a[j+2], res, res -->
<g id="node7" class="node">
<title>cmov a[j+2], res, res</title>
<ellipse fill="none" stroke="#000000" cx="242.3933" cy="-18" rx="85.2851" ry="18"/>
<text text-anchor="middle" x="242.3933" y="-14.3" font-family="Times,serif" font-size="14.00" fill="#000000">cmov a[j+2], res, res</text>
</g>
<!-- cmov a[j+1], res, res&#45;&gt;cmov a[j+2], res, res -->
<g id="edge7" class="edge">
<title>cmov a[j+1], res, res&#45;&gt;cmov a[j+2], res, res</title>
<path fill="none" stroke="#0000ff" d="M183.6742,-72.2022C193.4032,-63.2217 205.3539,-52.1902 215.9287,-42.4289"/>
<polygon fill="#0000ff" stroke="#0000ff" points="218.3601,-44.9477 223.3342,-35.593 213.6121,-39.804 218.3601,-44.9477"/>
</g>
<!-- test arr[j+1] -->
<g id="node6" class="node">
<title>test arr[j+1]</title>
<ellipse fill="none" stroke="#000000" cx="222.3933" cy="-162" rx="53.0913" ry="18"/>
<text text-anchor="middle" x="222.3933" y="-158.3" font-family="Times,serif" font-size="14.00" fill="#000000">test arr[j+1]</text>
</g>
<!-- j+1&#45;&gt;test arr[j+1] -->
<g id="edge5" class="edge">
<title>j+1&#45;&gt;test arr[j+1]</title>
<path fill="none" stroke="#0000ff" d="M222.3933,-215.8314C222.3933,-208.131 222.3933,-198.9743 222.3933,-190.4166"/>
<polygon fill="#0000ff" stroke="#0000ff" points="225.8934,-190.4132 222.3933,-180.4133 218.8934,-190.4133 225.8934,-190.4132"/>
</g>
<!-- j+2 -->
<g id="node8" class="node">
<title>j+2</title>
<ellipse fill="none" stroke="#000000" cx="320.3933" cy="-162" rx="27" ry="18"/>
<text text-anchor="middle" x="320.3933" y="-158.3" font-family="Times,serif" font-size="14.00" fill="#000000">j+2</text>
</g>
<!-- j+1&#45;&gt;j+2 -->
<g id="edge8" class="edge">
<title>j+1&#45;&gt;j+2</title>
<path fill="none" stroke="#000000" d="M240.8264,-220.4574C255.7465,-209.4956 276.9619,-193.9088 293.7341,-181.5864"/>
<polygon fill="#000000" stroke="#000000" points="296.0564,-184.2233 302.0429,-175.4819 291.9118,-178.5821 296.0564,-184.2233"/>
</g>
<!-- test arr[j+1]&#45;&gt;cmov a[j+1], res, res -->
<g id="edge6" class="edge">
<title>test arr[j+1]&#45;&gt;cmov a[j+1], res, res</title>
<path fill="none" stroke="#0000ff" d="M208.3531,-144.5708C201.4038,-135.9441 192.8763,-125.3582 185.1874,-115.8134"/>
<polygon fill="#0000ff" stroke="#0000ff" points="187.7061,-113.3608 178.7071,-107.7689 182.2548,-117.7521 187.7061,-113.3608"/>
</g>
<!-- test arr[j+2] -->
<g id="node9" class="node">
<title>test arr[j+2]</title>
<ellipse fill="none" stroke="#000000" cx="320.3933" cy="-90" rx="53.0913" ry="18"/>
<text text-anchor="middle" x="320.3933" y="-86.3" font-family="Times,serif" font-size="14.00" fill="#000000">test arr[j+2]</text>
</g>
<!-- j+2&#45;&gt;test arr[j+2] -->
<g id="edge9" class="edge">
<title>j+2&#45;&gt;test arr[j+2]</title>
<path fill="none" stroke="#00ff00" d="M320.3933,-143.8314C320.3933,-136.131 320.3933,-126.9743 320.3933,-118.4166"/>
<polygon fill="#00ff00" stroke="#00ff00" points="323.8934,-118.4132 320.3933,-108.4133 316.8934,-118.4133 323.8934,-118.4132"/>
</g>
<!-- test arr[j+2]&#45;&gt;cmov a[j+2], res, res -->
<g id="edge10" class="edge">
<title>test arr[j+2]&#45;&gt;cmov a[j+2], res, res</title>
<path fill="none" stroke="#00ff00" d="M301.9084,-72.937C292.1206,-63.9021 279.9227,-52.6425 269.1227,-42.6733"/>
<polygon fill="#00ff00" stroke="#00ff00" points="271.2822,-39.9034 261.5601,-35.6924 266.5342,-45.0471 271.2822,-39.9034"/>
</g>
</g>
</svg>
